<svg preserveAspectRatio="none" width="100%" height="100%" overflow="visible" style="display: block;" viewBox="0 0 30.8562 31.9996" fill="none" xmlns="http://www.w3.org/2000/svg">
<g id="Group">
<path id="Vector" fill-rule="evenodd" clip-rule="evenodd" d="M8.46189 20.0033C8.53974 19.3564 8.39389 18.7024 8.04856 18.1499C7.63799 17.5097 7.15478 16.9191 6.60856 16.3899C6.16311 15.9147 5.68649 15.4698 5.18189 15.0579C4.54189 14.5246 3.94322 14.1246 3.00989 13.3246C2.72989 13.0979 2.30322 12.8046 1.92989 12.4859L3.46322 11.7526C4.03295 11.4425 4.6894 11.3299 5.32989 11.4326C5.90897 11.7182 6.37763 12.1869 6.66322 12.7659C6.69309 12.8322 6.73618 12.8916 6.78983 12.9406C6.84349 12.9895 6.90659 13.027 6.97525 13.0508C7.04392 13.0745 7.11671 13.0839 7.18916 13.0785C7.2616 13.0731 7.33218 13.0529 7.39656 13.0193C7.45444 12.9861 7.50521 12.9418 7.54594 12.889C7.58667 12.8361 7.61656 12.7758 7.63391 12.7114C7.65125 12.6469 7.6557 12.5797 7.647 12.5136C7.63831 12.4474 7.61663 12.3837 7.58322 12.3259C7.21694 11.4749 6.56658 10.7774 5.74322 10.3526C4.86226 10.0987 3.92084 10.1552 3.07656 10.5126L0.96989 11.3259L0.43789 11.5926C0.259872 11.6981 0.124 11.8621 0.0534785 12.0567C-0.0170432 12.2512 -0.0178405 12.4642 0.0512229 12.6593C0.211223 12.9526 0.406778 13.2193 0.63789 13.4593C1.05122 13.8993 1.61122 14.3126 1.97122 14.6326C3.06456 15.5926 3.67789 15.9646 4.47656 16.7113C4.75656 16.9646 5.07656 17.2579 5.44989 17.6313C5.94081 18.0267 6.38782 18.4737 6.78322 18.9646C6.9656 19.1916 7.06862 19.4721 7.07656 19.7633C7.07656 20.3499 6.40989 20.5899 5.87656 20.5499C5.34322 20.5099 4.79656 20.1633 4.95656 19.4566C5.00722 19.2459 5.07833 19.0415 5.16989 18.8433C5.25345 18.6361 5.36011 18.4406 5.48989 18.2566C5.52491 18.2084 5.5501 18.1539 5.56403 18.096C5.57795 18.0381 5.58034 17.978 5.57106 17.9192C5.56177 17.8604 5.54099 17.804 5.50991 17.7532C5.47882 17.7024 5.43804 17.6583 5.38989 17.6233C5.34174 17.5882 5.28716 17.563 5.22927 17.5491C5.17139 17.5352 5.11132 17.5328 5.05251 17.5421C4.9937 17.5514 4.9373 17.5722 4.88652 17.6032C4.83574 17.6343 4.79158 17.6751 4.75656 17.7233C4.58186 17.9381 4.42993 18.1704 4.30322 18.4166C4.16061 18.6614 4.0444 18.9206 3.95656 19.1899C3.84295 19.4836 3.80178 19.8004 3.83654 20.1134C3.8713 20.4264 3.98097 20.7264 4.15625 20.988C4.33154 21.2496 4.56728 21.4651 4.84353 21.6163C5.11977 21.7675 5.42838 21.85 5.74322 21.8566C6.3472 21.9522 6.96488 21.8136 7.47013 21.4691C7.97539 21.1247 8.33012 20.6004 8.46189 20.0033Z" fill="var(--fill-0, #28315F)"/>
<path id="Vector_2" fill-rule="evenodd" clip-rule="evenodd" d="M21.1899 29.0393C20.1575 29.5846 19.0397 29.9498 17.8846 30.1193C16.3582 30.4251 14.7751 30.2672 13.3392 29.6659C12.5712 29.3618 11.8311 28.9915 11.1272 28.5593C10.0001 27.8431 8.76787 27.3077 7.47522 26.9726C6.99472 26.8172 6.48484 26.7749 5.98529 26.8489C5.48574 26.9229 5.01003 27.1112 4.59522 27.3993C4.53959 27.4387 4.49275 27.4893 4.45765 27.5478C4.42256 27.6063 4.39998 27.6714 4.39133 27.7391C4.38269 27.8067 4.38817 27.8755 4.40742 27.9409C4.42668 28.0063 4.4593 28.0671 4.50322 28.1193C4.54381 28.1734 4.59483 28.2189 4.65328 28.253C4.71173 28.2871 4.77642 28.3092 4.84353 28.3179C4.91064 28.3266 4.97881 28.3217 5.04403 28.3036C5.10924 28.2856 5.17017 28.2546 5.22322 28.2126C5.52679 28.0661 5.8595 27.9901 6.19656 27.9901C6.53361 27.9901 6.86632 28.0661 7.16989 28.2126C8.28589 28.5993 9.33389 29.1619 10.2739 29.8793C11.0463 30.4144 11.8641 30.8677 12.7272 31.2393C13.6086 31.623 14.5433 31.8703 15.4992 31.9726C16.4192 32.0446 17.3459 31.9726 18.2459 31.7593C19.5551 31.4487 20.7968 30.902 21.9099 30.1459C22.8382 29.5824 23.5372 28.7086 23.8832 27.6793C23.6032 27.3059 23.2032 27.3593 22.7099 27.7593C22.3099 28.3006 21.7899 28.7393 21.1899 29.0393Z" fill="var(--fill-0, #4F5EB1)"/>
<path id="Vector_3" fill-rule="evenodd" clip-rule="evenodd" d="M30.5339 16.3379C30.3477 16.0886 30.1092 15.883 29.8351 15.7356C29.561 15.5881 29.2579 15.5025 28.9472 15.4846C28.3489 15.4597 27.7513 15.5503 27.1872 15.7513H27.0539C27.0006 15.7513 27.0539 15.6579 27.1206 15.6046C27.2169 15.0469 27.1522 14.4734 26.9339 13.9513C26.8335 13.6039 26.6237 13.2982 26.3356 13.0796C26.0476 12.861 25.6968 12.7412 25.3352 12.7379C25.2289 12.7251 25.1215 12.7251 25.0152 12.7379C25.029 12.4659 24.9754 12.1946 24.8591 11.9483C24.7428 11.7019 24.5674 11.4881 24.3486 11.3259C24.062 11.1465 23.7259 11.0625 23.3886 11.0859C23.0068 11.1076 22.63 11.184 22.2699 11.3126C22.1499 11.3126 22.0432 11.4459 21.9232 11.4993C21.9428 11.1262 21.9428 10.7523 21.9232 10.3793C21.9366 10.1659 21.9366 9.95259 21.9232 9.73926C21.8903 9.53686 21.8458 9.33653 21.7899 9.13926C21.6299 8.64726 21.4166 8.23393 21.2566 7.80726C21.3188 7.75685 21.369 7.69304 21.4032 7.62059C21.5764 7.08384 21.6882 6.52919 21.7366 5.96726C21.7798 5.39274 21.7485 4.81504 21.6432 4.24859C21.5605 3.8825 21.421 3.53159 21.2299 3.20859C20.9583 2.77525 20.6457 2.36894 20.2966 1.99526C19.2842 0.839733 17.8591 0.127383 16.3272 0.01126C14.8337 -0.0756336 13.3544 0.342331 12.1272 1.19793C10.9421 2.00674 9.97632 3.09713 9.31656 4.37126C9.07583 4.84107 8.93281 5.3548 8.89615 5.88142C8.85948 6.40803 8.92992 6.93662 9.10322 7.43526C9.26989 7.83793 9.49922 8.21126 9.78322 8.54193C10.1814 8.98815 10.6259 9.3837 11.1166 9.72859C11.4934 10.0299 11.9019 10.2833 12.3419 10.4886C12.6574 10.6068 12.9819 10.6913 13.3152 10.7419C13.297 10.8209 13.297 10.903 13.3152 10.9819C13.4752 11.4753 13.5552 11.9419 13.7419 12.4339C13.8219 12.6339 13.9152 12.8206 14.0086 13.0073C14.1197 13.1939 14.2441 13.3717 14.3819 13.5406C14.5552 13.7539 14.7419 13.9539 14.9286 14.1539C14.1522 14.8401 13.4786 15.6345 12.9286 16.5126C12.6854 16.9363 12.4845 17.3829 12.3286 17.8459C12.1632 18.2779 12.0343 18.7224 11.9419 19.1793C11.7523 20.2564 11.703 21.3535 11.7952 22.4433C11.7895 22.5107 11.7982 22.5786 11.8206 22.6425C11.843 22.7063 11.8787 22.7648 11.9253 22.8139C11.9719 22.863 12.0284 22.9017 12.091 22.9274C12.1536 22.9532 12.2209 22.9654 12.2886 22.9633C12.4243 22.9669 12.556 22.9174 12.6557 22.8252C12.7553 22.733 12.815 22.6055 12.8219 22.4699C12.9552 21.489 13.1875 20.5241 13.5152 19.5899C13.6486 19.1913 13.7952 18.8046 13.9419 18.4179L14.4086 17.2713C14.6948 16.6144 15.0232 15.9793 15.3939 15.3659C15.4444 15.388 15.4988 15.3993 15.5539 15.3993C15.609 15.3993 15.6634 15.388 15.7139 15.3659C16.3219 15.0553 16.9806 14.8566 17.6606 14.7793C17.9479 14.7681 18.2342 14.8182 18.5007 14.9263C18.7671 15.0343 19.0075 15.1978 19.2059 15.4059C19.3259 15.5259 19.6192 15.6459 19.7659 15.7659C19.6326 15.7739 19.4992 15.7739 19.3659 15.7659C18.917 15.8326 18.4726 15.9215 18.0326 16.0326C17.7977 16.0958 17.5817 16.2149 17.4029 16.3798C17.2241 16.5446 17.0879 16.7503 17.0059 16.9793C16.9259 17.3073 16.9259 17.6499 17.0059 17.9793C17.1526 18.7526 17.6859 19.7779 17.7259 20.3113C17.7968 20.8235 17.6935 21.3448 17.4326 21.7913C17.1269 22.2502 16.7031 22.6182 16.2059 22.8566C16.1429 22.8827 16.0857 22.9212 16.038 22.9698C15.9902 23.0185 15.9527 23.0763 15.9278 23.1398C15.9029 23.2033 15.8911 23.2712 15.893 23.3394C15.895 23.4076 15.9107 23.4746 15.9392 23.5366C15.9653 23.5996 16.0038 23.6567 16.0525 23.7045C16.1011 23.7523 16.159 23.7898 16.2225 23.8147C16.286 23.8396 16.3538 23.8514 16.422 23.8494C16.4902 23.8475 16.5573 23.8318 16.6192 23.8033C17.3402 23.5373 17.9728 23.0755 18.4459 22.4699C18.5508 22.3099 18.6397 22.141 18.7126 21.9633L20.4592 25.3366C20.3286 25.3856 20.2035 25.4482 20.0859 25.5233C19.8974 25.651 19.7231 25.7985 19.5659 25.9633C19.3481 26.2361 19.1126 26.4935 18.8592 26.7353C18.7367 26.7932 18.6417 26.8968 18.5943 27.0238C18.547 27.1508 18.5512 27.2913 18.6059 27.4153C18.6665 27.5387 18.7724 27.634 18.9016 27.6813C19.0308 27.7285 19.1733 27.7239 19.2992 27.6686C19.7123 27.6043 20.1155 27.4879 20.4992 27.3219C20.6548 27.2437 20.8014 27.1504 20.9392 27.0419C21.0788 26.9388 21.2032 26.8188 21.3126 26.6819C21.5699 26.9379 21.8992 27.1086 22.2592 27.1753C23.0712 27.2819 23.7779 27.4019 24.3366 26.4419C24.5926 25.9433 24.7259 25.3899 24.7232 24.8286C24.7312 24.2556 24.6775 23.6834 24.5632 23.1219C24.9277 22.561 25.3454 22.0415 25.8166 21.5633C26.2832 21.0966 26.8126 20.6966 27.3899 20.3766C28.0432 19.9899 28.9099 19.7499 29.5752 19.3113C29.9512 19.0579 30.2779 18.7379 30.5352 18.3646C30.7441 18.068 30.8562 17.714 30.8562 17.3513C30.8562 16.9885 30.7428 16.6345 30.5339 16.3379ZM22.5379 12.5379C22.7486 12.4881 22.9619 12.453 23.1779 12.4326C23.269 12.4296 23.3584 12.4578 23.4312 12.5126C23.6179 12.6859 23.4312 12.9259 23.4312 13.1659C23.3353 13.3877 23.2145 13.598 23.0712 13.7926C22.8179 13.9793 22.5912 14.1793 22.4046 14.3393C22.2103 14.4995 22.0276 14.6732 21.8579 14.8593C21.7619 14.9793 21.6774 15.1081 21.6046 15.2459C21.5394 15.3617 21.5051 15.4924 21.5051 15.6253C21.5051 15.7581 21.5394 15.8888 21.6046 16.0046C21.6534 16.1147 21.725 16.2132 21.8146 16.2936C21.9042 16.374 22.0099 16.4346 22.1246 16.4713C22.2273 16.5172 22.3386 16.541 22.4512 16.541C22.5638 16.541 22.6751 16.5172 22.7779 16.4713L23.0179 16.2979L23.2979 16.0846L24.0179 15.3646C24.0694 15.305 24.1183 15.2428 24.1646 15.1779C24.4152 14.9824 24.6819 14.809 24.9646 14.6579C25.1646 14.5646 25.3779 14.4446 25.4846 14.6579C25.6072 14.8966 25.6632 15.1646 25.6446 15.4313C25.5998 15.725 25.4855 16.0039 25.3112 16.2446C25.1669 16.4651 25.0065 16.6745 24.8312 16.8713C24.6739 17.0579 24.4961 17.2224 24.2979 17.3646C24.1016 17.4889 23.88 17.5677 23.6493 17.5954C23.4186 17.6231 23.1847 17.5989 22.9646 17.5246C22.4269 17.3743 21.9565 17.045 21.6312 16.5913C21.553 16.482 21.4403 16.4022 21.3112 16.3646C21.314 16.3335 21.314 16.3023 21.3112 16.2713C21.3706 16.0927 21.3942 15.9042 21.3804 15.7166C21.3667 15.529 21.316 15.3459 21.2312 15.1779C20.9268 14.7818 20.5459 14.4508 20.1112 14.2046L19.9379 14.1113C20.2179 13.7739 20.5419 13.4739 20.8979 13.2179C21.408 12.9021 21.9665 12.6723 22.5512 12.5379H22.5379ZM13.6072 9.75393C13.5497 9.76419 13.495 9.78694 13.4472 9.82059C13.1986 9.76944 12.9569 9.68887 12.7272 9.58059C12.377 9.37823 12.0509 9.13668 11.7552 8.86059C11.4589 8.59703 11.1826 8.3118 10.9286 8.00726C10.6992 7.72094 10.5231 7.39579 10.4086 7.04726C10.3233 6.71351 10.309 6.3656 10.3664 6.02596C10.4238 5.68632 10.5517 5.36247 10.7419 5.07526C11.3299 4.10158 12.1382 3.27953 13.1019 2.67526C14.0141 2.03584 15.1068 1.70463 16.2206 1.72993C17.334 1.75115 18.3992 2.1888 19.2059 2.95659C19.4628 3.19659 19.7028 3.45437 19.9259 3.72993C20.1192 3.96459 20.2632 4.23659 20.3526 4.52993C20.4726 4.96193 20.5326 5.41126 20.5259 5.86193C20.5088 6.21156 20.4642 6.5593 20.3926 6.90193C19.4992 7.38193 18.5392 7.83526 17.5659 8.23526L16.4459 8.75393L15.7126 9.10059C15.0523 9.43355 14.3399 9.65434 13.6072 9.75393ZM19.0606 13.6593C18.7222 13.5421 18.3652 13.4878 18.0072 13.4993C17.3889 13.5426 16.7857 13.7104 16.2339 13.9926C16.0872 13.5793 15.9672 13.1526 15.8072 12.7393C15.7272 12.5393 15.6472 12.3393 15.5539 12.1526C15.45 11.9616 15.3253 11.7827 15.1819 11.6193C14.9181 11.2775 14.6235 10.9606 14.3019 10.6726C15.2014 10.746 16.1066 10.6464 16.9686 10.3793C17.5998 10.1599 18.1999 9.85959 18.7539 9.48593C19.2561 9.15704 19.7361 8.79748 20.1939 8.40726C20.1272 8.7237 20.0872 9.0437 20.0739 9.36726C20.0472 9.58415 20.0472 9.80193 20.0739 10.0206C20.113 10.233 20.1663 10.4419 20.2339 10.6473C20.3806 11.1273 20.5939 11.5673 20.7806 11.9806C20.5939 12.0993 20.3806 12.1526 20.2072 12.2859C19.7585 12.6838 19.372 13.1467 19.0606 13.6593ZM23.0592 24.6686C23.0367 24.8848 22.9966 25.0989 22.9392 25.3086C22.9392 25.4419 22.8726 25.6019 22.7526 25.6286L22.1392 24.8686L19.0339 20.6686V20.2419L18.5539 17.5766C18.6739 17.5837 18.7939 17.5837 18.9139 17.5766C19.4111 17.5235 19.8995 17.407 20.3672 17.2299C20.4526 17.1766 20.5326 17.1144 20.6072 17.0433V17.1499C21.0366 17.8606 21.7006 18.3979 22.4859 18.6699V18.8033C22.4859 20.0166 22.9259 21.6166 23.0726 23.0686C23.1321 23.6019 23.1277 24.1353 23.0592 24.6686ZM29.0699 17.4179C28.9407 17.607 28.7725 17.7661 28.5766 17.8846C27.9499 18.3246 27.1499 18.6313 26.5499 19.0446C25.5712 19.7263 24.7787 20.6421 24.2446 21.7086C23.9475 20.7552 23.7071 19.785 23.5246 18.8033C24.0238 18.8382 24.5228 18.7319 24.9646 18.4966C25.2072 18.3393 25.4339 18.1615 25.6446 17.9633C25.8241 17.7908 25.993 17.6086 26.1512 17.4166C26.4846 17.2655 26.8268 17.1366 27.1779 17.0299C27.6992 16.9099 28.2419 16.9099 28.7646 17.0299C28.9029 17.063 29.0254 17.1431 29.1112 17.2566C29.1112 17.2566 29.1246 17.3366 29.0712 17.4166" fill="var(--fill-0, #28315F)"/>
</g>
</svg>
