<svg preserveAspectRatio="none" width="100%" height="100%" overflow="visible" style="display: block;" viewBox="0 0 21.5312 27.3611" fill="none" xmlns="http://www.w3.org/2000/svg">
<g id="Group">
<path id="Vector" fill-rule="evenodd" clip-rule="evenodd" d="M5.90527 8.63206C6.4946 8.9014 7.12126 9.0774 7.76526 9.15473C8.13593 9.19473 8.50615 9.19473 8.87593 9.15473C9.25638 9.10228 9.62615 9.00851 9.98526 8.87339C10.556 8.60859 11.0644 8.22618 11.477 7.75124C11.8897 7.27629 12.1974 6.71952 12.3799 6.1174C12.7687 4.96134 12.6922 3.69934 12.1666 2.59873C11.9951 2.2762 11.7737 1.9828 11.5106 1.7294C11.1497 1.36298 10.7401 1.04802 10.2933 0.793396C5.15593 -2.05594 3.75193 3.65473 3.67193 4.0574C3.54714 4.62054 3.53969 5.20335 3.65002 5.76949C3.76036 6.33564 3.98614 6.873 4.31327 7.34806C4.71907 7.9112 5.26897 8.35471 5.90527 8.63206ZM4.82127 4.25873C4.82127 3.88273 5.90527 -0.811938 9.7186 1.7294C10.0022 1.91695 10.2653 2.13117 10.5079 2.37206C10.7186 2.5854 10.8906 2.83473 11.0146 3.10673C11.3359 3.91473 11.3359 4.8134 11.0146 5.62273C10.8812 6.0249 10.6649 6.39458 10.3797 6.70787C10.0944 7.02115 9.74655 7.27105 9.3586 7.4414C9.13015 7.53651 8.89371 7.59873 8.64927 7.62806C8.39504 7.65473 8.14082 7.65473 7.8866 7.62806C7.39575 7.58897 6.91351 7.47662 6.45593 7.29473C6.03249 7.16796 5.64959 6.93261 5.34527 6.61206C5.09389 6.28028 4.91707 5.89816 4.82687 5.49179C4.73667 5.08542 4.73521 4.66438 4.8226 4.2574" fill="var(--fill-0, #4F5EB1)"/>
<path id="Vector_2" fill-rule="evenodd" clip-rule="evenodd" d="M21.1293 12.231C20.4454 11.1144 19.4632 10.2111 18.2933 9.62298C17.8615 9.39619 17.4147 9.19929 16.956 9.03365C16.5981 8.90449 16.2246 8.82377 15.8453 8.79365C15.1885 8.77806 14.5335 8.8681 13.9053 9.06031C12.568 9.44831 11.364 10.1576 10.1586 10.519C9.61723 10.6643 9.0614 10.7492 8.50131 10.7723C7.92175 10.8203 7.34175 10.8203 6.76131 10.7723C6.40508 10.7284 6.05783 10.6295 5.73197 10.479C5.17571 10.2043 4.63929 9.89106 4.12664 9.54165C3.68738 9.21292 3.1936 8.96422 2.66797 8.80698C2.21712 8.71284 1.74784 8.76904 1.33197 8.96698C0.831332 9.18077 0.428083 9.57309 0.200629 10.0677C-0.0268239 10.5623 -0.0622263 11.1237 0.101306 11.643C0.468255 12.9244 1.26063 14.0427 2.34797 14.8136C3.39197 15.487 4.58797 15.887 5.82664 15.9776C6.98931 16.0243 8.15331 15.9256 9.29197 15.683C9.39242 15.8181 9.48131 15.9603 9.55864 16.1096C9.58529 16.1493 9.59953 16.1959 9.59953 16.2436C9.59953 16.2914 9.58529 16.338 9.55864 16.3776C9.44078 16.514 9.28159 16.6081 9.10531 16.6456C8.67597 16.7923 8.19464 16.8456 7.76664 16.9936C7.29048 17.2015 6.84139 17.4666 6.42931 17.783C5.97329 18.1464 5.59933 18.6021 5.33197 19.1203C4.81712 20.1262 4.55101 21.241 4.55597 22.371C4.55864 23.5363 4.88664 24.6763 5.50531 25.663C5.91612 26.2866 6.48971 26.786 7.16397 27.107C7.66397 27.3296 8.21464 27.4083 8.75597 27.3336L9.61197 27.067C9.92368 26.9412 10.1921 26.7276 10.3846 26.452C10.577 26.1765 10.6852 25.8509 10.696 25.515C10.6916 25.0523 10.587 24.596 10.3893 24.1776C10.1545 23.7199 9.95305 23.2458 9.78664 22.759C9.6958 22.4013 9.74844 22.0223 9.93331 21.703C10.1649 21.3178 10.4692 20.9813 10.8293 20.7123C11.1102 20.5488 11.4093 20.4332 11.7266 20.3656C11.9649 20.3123 12.2053 20.2856 12.448 20.2856C12.7986 21.3856 13.2693 22.4456 13.8533 23.4416C14.4715 24.5681 15.2768 25.5812 16.2346 26.4376C16.5742 26.7284 16.9785 26.9337 17.4137 27.0362C17.8489 27.1388 18.3023 27.1356 18.736 27.027C19.0617 26.8855 19.3369 26.6488 19.5256 26.3481C19.7143 26.0473 19.8076 25.6964 19.7933 25.3416C19.8227 24.6141 19.6949 23.8887 19.4186 23.215C19.0532 22.331 18.6287 21.4726 18.148 20.6456C17.0906 18.8403 16.208 17.555 15.3386 16.031C15.0068 15.4481 14.6942 14.8544 14.4013 14.251C14.5671 14.0694 14.7799 13.9371 15.0161 13.8689C15.2524 13.8006 15.5029 13.7991 15.74 13.8643C16.7133 14.2243 17.62 14.7483 18.4146 15.415C18.9013 15.7816 19.508 15.9483 20.1146 15.883C20.3427 15.8266 20.5556 15.7206 20.7381 15.5727C20.9206 15.4248 21.0683 15.2384 21.1706 15.027C21.4136 14.5996 21.538 14.1151 21.5309 13.6235C21.5239 13.132 21.3857 12.6512 21.1306 12.231M20.208 14.4923C20.1013 14.7056 19.968 14.8256 19.8066 14.8256C19.5233 14.8041 19.2509 14.7074 19.0173 14.5456C18.089 13.8621 17.0536 13.3376 15.9533 12.9936C15.5171 12.8749 15.0543 12.8991 14.6329 13.0627C14.2115 13.2264 13.8536 13.5209 13.612 13.903C13.579 13.9599 13.5616 14.0245 13.5616 14.0903C13.5616 14.1561 13.579 14.2207 13.612 14.2776C14.0266 15.3616 14.4413 16.2576 14.8706 17.1403C15.4986 18.479 16.208 19.6696 16.9306 21.2603C17.3484 22.0461 17.7182 22.8536 18.04 23.683C18.24 24.1523 18.34 24.6563 18.3346 25.167C18.3346 25.4216 18.268 25.5683 18.0946 25.595C17.733 25.5939 17.3811 25.4771 17.0906 25.2616C16.2071 24.5585 15.4473 23.7126 14.8426 22.759C14.1813 21.8043 13.6426 20.7723 13.2373 19.683C13.2208 19.6261 13.193 19.5732 13.1555 19.5274C13.118 19.4816 13.0717 19.4438 13.0193 19.4163C12.9669 19.3887 12.9095 19.3721 12.8505 19.3673C12.7915 19.3625 12.7321 19.3696 12.676 19.3883C12.3275 19.335 11.9795 19.335 11.632 19.3883C11.1653 19.451 10.712 19.5963 10.2946 19.8163C9.70024 20.1945 9.20872 20.7139 8.86397 21.3283C8.62664 21.8083 8.55197 22.3523 8.64931 22.8803C8.74264 23.5083 9.22397 24.351 9.33197 25.087C9.35126 25.1894 9.33356 25.2953 9.28204 25.3859C9.23052 25.4765 9.14852 25.5459 9.05064 25.5816L8.64931 25.7016C8.31488 25.7306 7.98045 25.6461 7.69997 25.4616C7.37172 25.258 7.09297 24.9838 6.88397 24.659C6.41487 23.922 6.15578 23.071 6.13464 22.1976C6.07147 21.281 6.23161 20.3628 6.60131 19.5216C6.76264 19.1616 7.00131 18.8416 7.29864 18.5856C7.62681 18.3027 7.99083 18.0642 8.38131 17.8763C8.76931 17.6763 9.33197 17.6096 9.71997 17.3816C9.98664 17.2563 10.2186 17.0616 10.388 16.8203C10.5639 16.5766 10.6359 16.273 10.588 15.9763C10.4326 15.5468 10.2024 15.1482 9.90797 14.799C9.83151 14.7348 9.73547 14.6984 9.63564 14.696C9.53581 14.6936 9.43813 14.7252 9.35864 14.7856C9.29342 14.766 9.22386 14.766 9.15864 14.7856C8.07391 14.9897 6.9668 15.048 5.86664 14.959C4.81241 14.8423 3.80244 14.4707 2.92397 13.8763C2.2553 13.3471 1.74588 12.6435 1.45197 11.843C1.21197 11.2016 1.17197 10.5056 1.87864 10.1976C1.97622 10.1569 2.08091 10.136 2.18664 10.136C2.29237 10.136 2.39706 10.1569 2.49464 10.1976C2.78886 10.3043 3.06531 10.447 3.32397 10.6256C3.88575 11.0301 4.47419 11.3914 5.08931 11.7096C5.55197 11.939 6.04931 12.0923 6.56131 12.1643C7.22201 12.2507 7.88876 12.2819 8.55464 12.2576C9.23728 12.241 9.91547 12.1426 10.5746 11.9643C11.792 11.603 13.0493 10.8803 14.3346 10.4923C14.7986 10.3336 15.2866 10.2523 15.7786 10.2523C16.0213 10.2585 16.2573 10.303 16.4866 10.3856C16.9053 10.5252 17.316 10.6852 17.7186 10.8656C18.6705 11.2912 19.4819 11.9783 20.0586 12.847C20.2291 13.0826 20.3327 13.3598 20.3585 13.6495C20.3843 13.9391 20.3314 14.2303 20.2053 14.4923" fill="var(--fill-0, #28315F)"/>
</g>
</svg>
