<svg preserveAspectRatio="none" width="100%" height="100%" overflow="visible" style="display: block;" viewBox="0 0 24.0007 21.4767" fill="none" xmlns="http://www.w3.org/2000/svg">
<g id="Group">
<path id="Vector" fill-rule="evenodd" clip-rule="evenodd" d="M16.1207 7.58835C15.6222 6.84881 14.9468 6.24561 14.1558 5.83362C13.3648 5.42162 12.4834 5.2139 11.5917 5.22935C10.69 5.2164 9.79302 5.36194 8.94168 5.65935C4.87168 7.21935 3.32268 14.3983 9.00168 15.7483C11.6717 16.4083 14.3717 16.4883 16.0017 14.2883C16.665 13.3018 17.0292 12.1447 17.0505 10.9561C17.0718 9.76745 16.7483 8.598 16.1207 7.58835ZM15.3417 13.7483C13.8917 15.5383 11.5527 15.2983 9.34268 14.7483C8.9333 14.6584 8.53685 14.5173 8.16268 14.3283C5.00268 12.6883 6.28268 7.63835 9.23268 6.37835C9.84268 6.11835 13.0727 4.94935 15.3127 7.74835C15.7127 8.22035 15.9917 8.78435 16.1227 9.38835C16.3162 10.1282 16.3466 10.9013 16.212 11.6541C16.0773 12.4069 15.7807 13.1215 15.3427 13.7483" fill="var(--fill-0, white)"/>
<path id="Vector_2" fill-rule="evenodd" clip-rule="evenodd" d="M11.8917 8.74835C11.6461 8.05304 11.5573 7.31201 11.6317 6.57835C11.7317 6.14835 10.8917 6.07835 10.8117 6.57835C10.6606 7.24845 10.6804 7.94575 10.8691 8.60623C11.0578 9.26671 11.4094 9.86919 11.8917 10.3583C12.8277 11.4275 14.145 12.0879 15.5617 12.1983C15.6598 12.2063 15.7571 12.175 15.8321 12.1112C15.9071 12.0474 15.9537 11.9565 15.9617 11.8583C15.9696 11.7602 15.9383 11.6629 15.8745 11.5879C15.8108 11.5129 15.7198 11.4663 15.6217 11.4583C14.825 11.3482 14.0679 11.0432 13.4172 10.5705C12.7666 10.0978 12.2426 9.47195 11.8917 8.74835ZM11.2217 3.75035C11.3075 3.74775 11.3888 3.71184 11.4486 3.65023C11.5083 3.58862 11.5417 3.50617 11.5417 3.42035C11.625 2.99368 11.6817 2.56368 11.7117 2.13035C11.6827 1.44313 11.5338 0.766271 11.2717 0.130349C11.2316 0.0739563 11.1738 0.0326017 11.1074 0.0128702C11.0411 -0.00686122 10.9701 -0.00383492 10.9057 0.0214671C10.8413 0.0467692 10.7872 0.0928921 10.752 0.152492C10.7169 0.212091 10.7027 0.281741 10.7117 0.350349C10.6917 0.640349 10.4817 3.75035 11.2217 3.75035ZM3.31268 10.9283C2.87268 10.8583 2.48268 10.7183 2.06268 10.6483C1.64268 10.5783 0.00267835 10.6883 0.00267835 11.0083C-0.0873217 11.6483 2.11268 11.7783 3.31268 11.5783C3.3891 11.5649 3.45833 11.5249 3.50822 11.4655C3.55811 11.4061 3.58545 11.3309 3.58545 11.2533C3.58545 11.1758 3.55811 11.1006 3.50822 11.0412C3.45833 10.9818 3.3891 10.9418 3.31268 10.9283ZM21.9407 10.6783C21.5207 10.7583 21.1307 10.8983 20.7007 10.9683C20.6243 10.9818 20.555 11.0218 20.5051 11.0812C20.4553 11.1406 20.4279 11.2158 20.4279 11.2933C20.4279 11.3709 20.4553 11.4461 20.5051 11.5055C20.555 11.5649 20.6243 11.6049 20.7007 11.6183C21.1313 11.6943 21.5647 11.7377 22.0007 11.7483C22.5507 11.7483 24.0007 11.3283 24.0007 11.0083C24.0007 10.6883 22.2607 10.6283 21.9407 10.6783ZM12.3317 18.2784C12.3317 18.1684 12.1617 18.1284 11.9517 18.1884C11.5817 18.2984 11.1417 20.3683 11.8617 21.2983C11.8857 21.3459 11.921 21.3868 11.9646 21.4174C12.0081 21.4481 12.0585 21.4676 12.1113 21.4742C12.1642 21.4808 12.2178 21.4744 12.2676 21.4554C12.3174 21.4364 12.3617 21.4055 12.3967 21.3654C12.4391 21.3172 12.4661 21.2574 12.4741 21.1938C12.4821 21.1301 12.4708 21.0655 12.4417 21.0084C12.5525 20.0984 12.5153 19.1765 12.3317 18.2784ZM6.67268 16.7983C6.28268 17.1583 4.54268 18.2284 4.32268 19.0284C4.27268 19.2084 4.26268 19.3384 4.32268 19.4384C4.37674 19.5014 4.45093 19.5438 4.53268 19.5583C5.64834 19.1045 6.56875 18.2726 7.13268 17.2083C7.16331 17.1456 7.17261 17.0746 7.15914 17.0061C7.14567 16.9377 7.11018 16.8754 7.05807 16.829C7.00597 16.7826 6.94011 16.7544 6.87053 16.7489C6.80095 16.7434 6.73147 16.7607 6.67268 16.7983ZM17.3707 16.8584C17.3115 16.8057 17.2353 16.7762 17.1561 16.7751C17.0769 16.774 16.9999 16.8014 16.9393 16.8524C16.8786 16.9033 16.8383 16.9744 16.8257 17.0526C16.8131 17.1308 16.8291 17.2109 16.8707 17.2784C17.0953 17.6697 17.3587 18.033 17.6607 18.3683C18.2063 18.8743 18.827 19.2926 19.5007 19.6084C19.5816 19.5924 19.6533 19.5458 19.7007 19.4783C20.3307 18.8983 17.5207 16.9984 17.3707 16.8584ZM5.74268 6.65935C5.77175 6.6915 5.80702 6.71745 5.84637 6.73564C5.88571 6.75383 5.92833 6.76389 5.97165 6.76521C6.01498 6.76654 6.05813 6.7591 6.09851 6.74335C6.1389 6.7276 6.17568 6.70385 6.20667 6.67354C6.23765 6.64323 6.2622 6.60697 6.27884 6.56694C6.29547 6.52692 6.30386 6.48394 6.30348 6.44059C6.30311 6.39725 6.29399 6.35442 6.27667 6.31469C6.25935 6.27495 6.23418 6.23912 6.20268 6.20935C5.53852 5.22889 4.59908 4.4669 3.50268 4.01935C3.13268 3.85935 2.94268 4.06935 2.96268 4.22935C2.96268 4.57935 4.05268 5.58935 4.50268 5.87935C4.95268 6.16935 5.34268 6.36935 5.74268 6.65935ZM21.0007 4.26935C21.0007 4.11935 20.8407 3.88935 20.4607 4.06935C19.3672 4.51771 18.4335 5.28414 17.7807 6.26935C17.7492 6.29912 17.724 6.33495 17.7067 6.37469C17.6894 6.41442 17.6802 6.45725 17.6799 6.50059C17.6795 6.54394 17.6879 6.58691 17.7045 6.62694C17.7212 6.66697 17.7457 6.70323 17.7767 6.73354C17.8077 6.76385 17.8445 6.7876 17.8848 6.80335C17.9252 6.8191 17.9684 6.82654 18.0117 6.82521C18.055 6.82389 18.0976 6.81383 18.137 6.79564C18.1763 6.77745 18.2116 6.7515 18.2407 6.71935C18.4307 6.56935 21.0007 4.98935 21.0007 4.26935Z" fill="var(--fill-0, #ACB4E0)"/>
</g>
</svg>
